<mxfile host="app.diagrams.net" modified="2023-06-18T20:46:08.364Z" agent="Mozilla/5.0 (Windows NT 10.0; Win64; x64) AppleWebKit/537.36 (KHTML, like Gecko) Chrome/113.0.0.0 Safari/537.36 OPR/99.0.0.0" etag="j2dv40xWnWMp1Ixwq6Bj" version="21.4.0" type="device">
  <diagram name="Page-1" id="DYEO6l8ufrfzXIwW0hGx">
    <mxGraphModel dx="2663" dy="589" grid="1" gridSize="10" guides="1" tooltips="1" connect="1" arrows="1" fold="1" page="1" pageScale="1" pageWidth="827" pageHeight="1169" math="0" shadow="0">
      <root>
        <mxCell id="0" />
        <mxCell id="1" parent="0" />
        <mxCell id="8pnDIeixsctBV1Rn3b5U-1" value="&lt;i style=&quot;&quot;&gt;Shape&lt;/i&gt;" style="swimlane;fontStyle=1;align=center;verticalAlign=top;childLayout=stackLayout;horizontal=1;startSize=26;horizontalStack=0;resizeParent=1;resizeParentMax=0;resizeLast=0;collapsible=1;marginBottom=0;whiteSpace=wrap;html=1;fillColor=#f8cecc;strokeColor=#b85450;" parent="1" vertex="1">
          <mxGeometry x="670" y="10" width="320" height="260" as="geometry" />
        </mxCell>
        <mxCell id="8pnDIeixsctBV1Rn3b5U-2" value="# color : cv::Scalar&lt;br&gt;# thickness : int&lt;br&gt;# type : ShapeType&lt;br&gt;# data : ShapeData" style="text;strokeColor=none;fillColor=none;align=left;verticalAlign=top;spacingLeft=4;spacingRight=4;overflow=hidden;rotatable=0;points=[[0,0.5],[1,0.5]];portConstraint=eastwest;whiteSpace=wrap;html=1;" parent="8pnDIeixsctBV1Rn3b5U-1" vertex="1">
          <mxGeometry y="26" width="320" height="84" as="geometry" />
        </mxCell>
        <mxCell id="8pnDIeixsctBV1Rn3b5U-3" value="" style="line;strokeWidth=1;fillColor=none;align=left;verticalAlign=middle;spacingTop=-1;spacingLeft=3;spacingRight=3;rotatable=0;labelPosition=right;points=[];portConstraint=eastwest;strokeColor=inherit;" parent="8pnDIeixsctBV1Rn3b5U-1" vertex="1">
          <mxGeometry y="110" width="320" height="8" as="geometry" />
        </mxCell>
        <mxCell id="8pnDIeixsctBV1Rn3b5U-4" value="&lt;i&gt;+ Shape(type : ShapeType, color : cv::Scalar, thickness : &lt;span style=&quot;white-space: pre;&quot;&gt;&#x9;&lt;/span&gt;int, data : ShapeData)&lt;br&gt;&lt;br&gt;+ get_type() : ShapeType&lt;br&gt;+ get_color() : cv::Scalar&lt;br&gt;+ get_thickness() : int&lt;br&gt;+ get_data() : ShapeData&lt;br&gt;&lt;br&gt;+ draw(image : cv::Mat)&lt;/i&gt;" style="text;strokeColor=none;fillColor=none;align=left;verticalAlign=top;spacingLeft=4;spacingRight=4;overflow=hidden;rotatable=0;points=[[0,0.5],[1,0.5]];portConstraint=eastwest;whiteSpace=wrap;html=1;" parent="8pnDIeixsctBV1Rn3b5U-1" vertex="1">
          <mxGeometry y="118" width="320" height="142" as="geometry" />
        </mxCell>
        <mxCell id="8pnDIeixsctBV1Rn3b5U-5" value="Rectangle" style="swimlane;fontStyle=1;align=center;verticalAlign=top;childLayout=stackLayout;horizontal=1;startSize=26;horizontalStack=0;resizeParent=1;resizeParentMax=0;resizeLast=0;collapsible=1;marginBottom=0;whiteSpace=wrap;html=1;fillColor=#dae8fc;strokeColor=#6c8ebf;" parent="1" vertex="1">
          <mxGeometry x="-40" y="360" width="400" height="130" as="geometry" />
        </mxCell>
        <mxCell id="8pnDIeixsctBV1Rn3b5U-6" value="&lt;br&gt;" style="text;strokeColor=none;fillColor=none;align=left;verticalAlign=top;spacingLeft=4;spacingRight=4;overflow=hidden;rotatable=0;points=[[0,0.5],[1,0.5]];portConstraint=eastwest;whiteSpace=wrap;html=1;" parent="8pnDIeixsctBV1Rn3b5U-5" vertex="1">
          <mxGeometry y="26" width="400" height="24" as="geometry" />
        </mxCell>
        <mxCell id="8pnDIeixsctBV1Rn3b5U-7" value="" style="line;strokeWidth=1;fillColor=none;align=left;verticalAlign=middle;spacingTop=-1;spacingLeft=3;spacingRight=3;rotatable=0;labelPosition=right;points=[];portConstraint=eastwest;strokeColor=inherit;" parent="8pnDIeixsctBV1Rn3b5U-5" vertex="1">
          <mxGeometry y="50" width="400" height="8" as="geometry" />
        </mxCell>
        <mxCell id="8pnDIeixsctBV1Rn3b5U-8" value="+ Rectangle(topLeftVertex : cv::Point, rightBottmVertex : &lt;span style=&quot;white-space: pre;&quot;&gt; &lt;/span&gt;cv::Point, color : cv::Scalar, thickness : int)&lt;br&gt;&lt;br&gt;+ draw(image : cv::Mat)" style="text;strokeColor=none;fillColor=none;align=left;verticalAlign=top;spacingLeft=4;spacingRight=4;overflow=hidden;rotatable=0;points=[[0,0.5],[1,0.5]];portConstraint=eastwest;whiteSpace=wrap;html=1;" parent="8pnDIeixsctBV1Rn3b5U-5" vertex="1">
          <mxGeometry y="58" width="400" height="72" as="geometry" />
        </mxCell>
        <mxCell id="8pnDIeixsctBV1Rn3b5U-17" value="" style="endArrow=block;endSize=16;endFill=0;html=1;rounded=0;exitX=0.5;exitY=0;exitDx=0;exitDy=0;" parent="1" source="8pnDIeixsctBV1Rn3b5U-5" target="8pnDIeixsctBV1Rn3b5U-4" edge="1">
          <mxGeometry width="160" relative="1" as="geometry">
            <mxPoint x="320" y="370" as="sourcePoint" />
            <mxPoint x="480" y="370" as="targetPoint" />
          </mxGeometry>
        </mxCell>
        <mxCell id="8pnDIeixsctBV1Rn3b5U-18" value="" style="endArrow=block;endSize=16;endFill=0;html=1;rounded=0;exitX=0.5;exitY=0;exitDx=0;exitDy=0;" parent="1" source="8pnDIeixsctBV1Rn3b5U-20" target="8pnDIeixsctBV1Rn3b5U-4" edge="1">
          <mxGeometry width="160" relative="1" as="geometry">
            <mxPoint x="560" y="360" as="sourcePoint" />
            <mxPoint x="480" y="370" as="targetPoint" />
          </mxGeometry>
        </mxCell>
        <mxCell id="8pnDIeixsctBV1Rn3b5U-19" value="" style="endArrow=block;endSize=16;endFill=0;html=1;rounded=0;exitX=0.5;exitY=0;exitDx=0;exitDy=0;" parent="1" target="8pnDIeixsctBV1Rn3b5U-4" edge="1">
          <mxGeometry width="160" relative="1" as="geometry">
            <mxPoint x="1090" y="360" as="sourcePoint" />
            <mxPoint x="480" y="370" as="targetPoint" />
          </mxGeometry>
        </mxCell>
        <mxCell id="8pnDIeixsctBV1Rn3b5U-20" value="Triangle" style="swimlane;fontStyle=1;align=center;verticalAlign=top;childLayout=stackLayout;horizontal=1;startSize=26;horizontalStack=0;resizeParent=1;resizeParentMax=0;resizeLast=0;collapsible=1;marginBottom=0;whiteSpace=wrap;html=1;fillColor=#dae8fc;strokeColor=#6c8ebf;" parent="1" vertex="1">
          <mxGeometry x="400" y="360" width="430" height="140" as="geometry" />
        </mxCell>
        <mxCell id="8pnDIeixsctBV1Rn3b5U-21" value="&lt;br&gt;" style="text;strokeColor=none;fillColor=none;align=left;verticalAlign=top;spacingLeft=4;spacingRight=4;overflow=hidden;rotatable=0;points=[[0,0.5],[1,0.5]];portConstraint=eastwest;whiteSpace=wrap;html=1;" parent="8pnDIeixsctBV1Rn3b5U-20" vertex="1">
          <mxGeometry y="26" width="430" height="34" as="geometry" />
        </mxCell>
        <mxCell id="8pnDIeixsctBV1Rn3b5U-22" value="" style="line;strokeWidth=1;fillColor=none;align=left;verticalAlign=middle;spacingTop=-1;spacingLeft=3;spacingRight=3;rotatable=0;labelPosition=right;points=[];portConstraint=eastwest;strokeColor=inherit;" parent="8pnDIeixsctBV1Rn3b5U-20" vertex="1">
          <mxGeometry y="60" width="430" height="8" as="geometry" />
        </mxCell>
        <mxCell id="8pnDIeixsctBV1Rn3b5U-23" value="+ Triangle(firstVertex : cv::Point, secondVertex : cv::Point, &lt;span style=&quot;&quot;&gt; &lt;/span&gt;thirdvertex : cv::Point, color : cv::Scalar, thickness : int)&lt;br&gt;&lt;br&gt;+ draw(image : cv::Mat)" style="text;strokeColor=none;fillColor=none;align=left;verticalAlign=top;spacingLeft=4;spacingRight=4;overflow=hidden;rotatable=0;points=[[0,0.5],[1,0.5]];portConstraint=eastwest;whiteSpace=wrap;html=1;" parent="8pnDIeixsctBV1Rn3b5U-20" vertex="1">
          <mxGeometry y="68" width="430" height="72" as="geometry" />
        </mxCell>
        <mxCell id="8pnDIeixsctBV1Rn3b5U-24" value="Circle" style="swimlane;fontStyle=1;align=center;verticalAlign=top;childLayout=stackLayout;horizontal=1;startSize=26;horizontalStack=0;resizeParent=1;resizeParentMax=0;resizeLast=0;collapsible=1;marginBottom=0;whiteSpace=wrap;html=1;fillColor=#dae8fc;strokeColor=#6c8ebf;" parent="1" vertex="1">
          <mxGeometry x="880" y="360" width="440" height="130" as="geometry" />
        </mxCell>
        <mxCell id="8pnDIeixsctBV1Rn3b5U-25" value="&lt;br&gt;" style="text;strokeColor=none;fillColor=none;align=left;verticalAlign=top;spacingLeft=4;spacingRight=4;overflow=hidden;rotatable=0;points=[[0,0.5],[1,0.5]];portConstraint=eastwest;whiteSpace=wrap;html=1;" parent="8pnDIeixsctBV1Rn3b5U-24" vertex="1">
          <mxGeometry y="26" width="440" height="34" as="geometry" />
        </mxCell>
        <mxCell id="8pnDIeixsctBV1Rn3b5U-26" value="" style="line;strokeWidth=1;fillColor=none;align=left;verticalAlign=middle;spacingTop=-1;spacingLeft=3;spacingRight=3;rotatable=0;labelPosition=right;points=[];portConstraint=eastwest;strokeColor=inherit;" parent="8pnDIeixsctBV1Rn3b5U-24" vertex="1">
          <mxGeometry y="60" width="440" height="8" as="geometry" />
        </mxCell>
        <mxCell id="8pnDIeixsctBV1Rn3b5U-27" value="+ Circle(centerVertex : cv::Point, radius : int, color : cv::Scalar, &lt;span style=&quot;&quot;&gt; &lt;/span&gt;thickness : int)&lt;br&gt;&lt;br&gt;+ draw(image : cv::Mat)" style="text;strokeColor=none;fillColor=none;align=left;verticalAlign=top;spacingLeft=4;spacingRight=4;overflow=hidden;rotatable=0;points=[[0,0.5],[1,0.5]];portConstraint=eastwest;whiteSpace=wrap;html=1;" parent="8pnDIeixsctBV1Rn3b5U-24" vertex="1">
          <mxGeometry y="68" width="440" height="62" as="geometry" />
        </mxCell>
        <mxCell id="8pnDIeixsctBV1Rn3b5U-28" value="ShapeManager" style="swimlane;fontStyle=1;align=center;verticalAlign=top;childLayout=stackLayout;horizontal=1;startSize=26;horizontalStack=0;resizeParent=1;resizeParentMax=0;resizeLast=0;collapsible=1;marginBottom=0;whiteSpace=wrap;html=1;fillColor=#f8cecc;strokeColor=#b85450;" parent="1" vertex="1">
          <mxGeometry x="-720" y="10" width="560" height="290" as="geometry" />
        </mxCell>
        <mxCell id="8pnDIeixsctBV1Rn3b5U-29" value="&lt;br&gt;" style="text;strokeColor=none;fillColor=none;align=left;verticalAlign=top;spacingLeft=4;spacingRight=4;overflow=hidden;rotatable=0;points=[[0,0.5],[1,0.5]];portConstraint=eastwest;whiteSpace=wrap;html=1;" parent="8pnDIeixsctBV1Rn3b5U-28" vertex="1">
          <mxGeometry y="26" width="560" height="26" as="geometry" />
        </mxCell>
        <mxCell id="8pnDIeixsctBV1Rn3b5U-30" value="" style="line;strokeWidth=1;fillColor=none;align=left;verticalAlign=middle;spacingTop=-1;spacingLeft=3;spacingRight=3;rotatable=0;labelPosition=right;points=[];portConstraint=eastwest;strokeColor=inherit;" parent="8pnDIeixsctBV1Rn3b5U-28" vertex="1">
          <mxGeometry y="52" width="560" height="8" as="geometry" />
        </mxCell>
        <mxCell id="8pnDIeixsctBV1Rn3b5U-31" value="+ ShapeManager(image : cv::Mat)&lt;br&gt;&lt;br&gt;+ draw(image : cv::Mat)&lt;br&gt;&lt;br&gt;+ create_rectangle(topLeftVertex : cv::Point, bottomRightVertex:&amp;nbsp; cv::Point, color : &lt;span style=&quot;&quot;&gt;&lt;span style=&quot;&quot;&gt;&amp;nbsp;&amp;nbsp;&amp;nbsp;&amp;nbsp;&lt;/span&gt;&lt;/span&gt;cv::Scalar, &lt;br&gt;&lt;span style=&quot;white-space: pre;&quot;&gt; &lt;span style=&quot;white-space: pre;&quot;&gt;&#x9;&lt;/span&gt;&lt;/span&gt;thickness : int)&lt;br&gt;&lt;br&gt;+ create_triangle(firstVertex : cv::Point, secondVertex : cv::Point,&amp;nbsp; thirdVertex: &lt;span style=&quot;&quot;&gt;&lt;span style=&quot;&quot;&gt;&amp;nbsp;&amp;nbsp;&amp;nbsp;&amp;nbsp;&lt;/span&gt;&lt;/span&gt;cv::Point, &lt;span style=&quot;white-space: pre;&quot;&gt; &lt;span style=&quot;white-space: pre;&quot;&gt;&#x9;&lt;/span&gt;&lt;/span&gt;color : &lt;span style=&quot;white-space: pre;&quot;&gt;&#x9;&lt;/span&gt;cv::Scalar, thickness : int)&lt;br&gt;&lt;br&gt; + create_circle(centerVertex : cv::Point, radius : int, color : cv::Scalar,&amp;nbsp; thickness : int)&lt;br&gt;&lt;br&gt;+ create_straight_line(firstVertex : cv::Point, secondVertex : cv::Point, color :&amp;nbsp;cv::Scalar, &lt;span style=&quot;white-space: pre;&quot;&gt; &lt;/span&gt;thickness : int)&lt;br&gt;&lt;br&gt;+ get_shapes() : Shape[0..n]" style="text;strokeColor=none;fillColor=none;align=left;verticalAlign=top;spacingLeft=4;spacingRight=4;overflow=hidden;rotatable=0;points=[[0,0.5],[1,0.5]];portConstraint=eastwest;whiteSpace=wrap;html=1;" parent="8pnDIeixsctBV1Rn3b5U-28" vertex="1">
          <mxGeometry y="60" width="560" height="230" as="geometry" />
        </mxCell>
        <mxCell id="8pnDIeixsctBV1Rn3b5U-32" value="StraightLine" style="swimlane;fontStyle=1;align=center;verticalAlign=top;childLayout=stackLayout;horizontal=1;startSize=26;horizontalStack=0;resizeParent=1;resizeParentMax=0;resizeLast=0;collapsible=1;marginBottom=0;whiteSpace=wrap;html=1;fillColor=#dae8fc;strokeColor=#6c8ebf;" parent="1" vertex="1">
          <mxGeometry x="1360" y="360" width="440" height="150" as="geometry" />
        </mxCell>
        <mxCell id="8pnDIeixsctBV1Rn3b5U-33" value="&lt;br&gt;" style="text;strokeColor=none;fillColor=none;align=left;verticalAlign=top;spacingLeft=4;spacingRight=4;overflow=hidden;rotatable=0;points=[[0,0.5],[1,0.5]];portConstraint=eastwest;whiteSpace=wrap;html=1;" parent="8pnDIeixsctBV1Rn3b5U-32" vertex="1">
          <mxGeometry y="26" width="440" height="34" as="geometry" />
        </mxCell>
        <mxCell id="8pnDIeixsctBV1Rn3b5U-34" value="" style="line;strokeWidth=1;fillColor=none;align=left;verticalAlign=middle;spacingTop=-1;spacingLeft=3;spacingRight=3;rotatable=0;labelPosition=right;points=[];portConstraint=eastwest;strokeColor=inherit;" parent="8pnDIeixsctBV1Rn3b5U-32" vertex="1">
          <mxGeometry y="60" width="440" height="8" as="geometry" />
        </mxCell>
        <mxCell id="8pnDIeixsctBV1Rn3b5U-35" value="+ StraightLine(firstVertex : cv::Point, secondVertex : cv::Point, color : cv::Scalar, thickness : int)&lt;br&gt;&lt;br&gt;+ draw(image : cv::Mat)" style="text;strokeColor=none;fillColor=none;align=left;verticalAlign=top;spacingLeft=4;spacingRight=4;overflow=hidden;rotatable=0;points=[[0,0.5],[1,0.5]];portConstraint=eastwest;whiteSpace=wrap;html=1;" parent="8pnDIeixsctBV1Rn3b5U-32" vertex="1">
          <mxGeometry y="68" width="440" height="82" as="geometry" />
        </mxCell>
        <mxCell id="8pnDIeixsctBV1Rn3b5U-36" value="" style="endArrow=block;endSize=16;endFill=0;html=1;rounded=0;exitX=0.5;exitY=0;exitDx=0;exitDy=0;" parent="1" source="8pnDIeixsctBV1Rn3b5U-32" target="8pnDIeixsctBV1Rn3b5U-4" edge="1">
          <mxGeometry width="160" relative="1" as="geometry">
            <mxPoint x="1298" y="290" as="sourcePoint" />
            <mxPoint x="850" y="120" as="targetPoint" />
          </mxGeometry>
        </mxCell>
        <mxCell id="8pnDIeixsctBV1Rn3b5U-37" value="0..n" style="endArrow=open;html=1;endSize=12;startArrow=diamondThin;startSize=14;startFill=1;edgeStyle=orthogonalEdgeStyle;align=left;verticalAlign=bottom;rounded=0;exitX=1;exitY=0.5;exitDx=0;exitDy=0;" parent="1" source="8pnDIeixsctBV1Rn3b5U-29" target="8pnDIeixsctBV1Rn3b5U-1" edge="1">
          <mxGeometry x="0.9395" y="10" relative="1" as="geometry">
            <mxPoint x="-320" y="290" as="sourcePoint" />
            <mxPoint x="-160" y="290" as="targetPoint" />
            <mxPoint as="offset" />
          </mxGeometry>
        </mxCell>
        <mxCell id="8pnDIeixsctBV1Rn3b5U-38" value="shapes" style="text;html=1;align=center;verticalAlign=middle;resizable=0;points=[];autosize=1;strokeColor=none;fillColor=none;" parent="1" vertex="1">
          <mxGeometry x="610" y="120" width="60" height="30" as="geometry" />
        </mxCell>
        <mxCell id="8pnDIeixsctBV1Rn3b5U-42" value="DataManager" style="swimlane;fontStyle=1;align=center;verticalAlign=top;childLayout=stackLayout;horizontal=1;startSize=26;horizontalStack=0;resizeParent=1;resizeParentMax=0;resizeLast=0;collapsible=1;marginBottom=0;whiteSpace=wrap;html=1;fillColor=#ffe6cc;strokeColor=#d79b00;" parent="1" vertex="1">
          <mxGeometry x="-1230" y="40" width="230" height="130" as="geometry" />
        </mxCell>
        <mxCell id="8pnDIeixsctBV1Rn3b5U-43" value="- name : map&amp;lt;string, ShapeType&amp;gt;" style="text;strokeColor=none;fillColor=none;align=left;verticalAlign=top;spacingLeft=4;spacingRight=4;overflow=hidden;rotatable=0;points=[[0,0.5],[1,0.5]];portConstraint=eastwest;whiteSpace=wrap;html=1;" parent="8pnDIeixsctBV1Rn3b5U-42" vertex="1">
          <mxGeometry y="26" width="230" height="26" as="geometry" />
        </mxCell>
        <mxCell id="8pnDIeixsctBV1Rn3b5U-44" value="" style="line;strokeWidth=1;fillColor=none;align=left;verticalAlign=middle;spacingTop=-1;spacingLeft=3;spacingRight=3;rotatable=0;labelPosition=right;points=[];portConstraint=eastwest;strokeColor=inherit;" parent="8pnDIeixsctBV1Rn3b5U-42" vertex="1">
          <mxGeometry y="52" width="230" height="8" as="geometry" />
        </mxCell>
        <mxCell id="8pnDIeixsctBV1Rn3b5U-45" value="+ DataManager(shapes : ShapeDrawer)&lt;br&gt;&lt;br&gt;+ load(path : string)&lt;br&gt;+ save(path : string)" style="text;strokeColor=none;fillColor=none;align=left;verticalAlign=top;spacingLeft=4;spacingRight=4;overflow=hidden;rotatable=0;points=[[0,0.5],[1,0.5]];portConstraint=eastwest;whiteSpace=wrap;html=1;" parent="8pnDIeixsctBV1Rn3b5U-42" vertex="1">
          <mxGeometry y="60" width="230" height="70" as="geometry" />
        </mxCell>
        <mxCell id="8pnDIeixsctBV1Rn3b5U-46" value="" style="endArrow=open;endSize=12;dashed=1;html=1;rounded=0;exitX=1;exitY=0.5;exitDx=0;exitDy=0;" parent="1" source="8pnDIeixsctBV1Rn3b5U-43" target="8pnDIeixsctBV1Rn3b5U-31" edge="1">
          <mxGeometry width="160" relative="1" as="geometry">
            <mxPoint x="-830" y="270" as="sourcePoint" />
            <mxPoint x="-670" y="270" as="targetPoint" />
          </mxGeometry>
        </mxCell>
        <mxCell id="8pnDIeixsctBV1Rn3b5U-47" value="InputManager" style="swimlane;fontStyle=1;align=center;verticalAlign=top;childLayout=stackLayout;horizontal=1;startSize=26;horizontalStack=0;resizeParent=1;resizeParentMax=0;resizeLast=0;collapsible=1;marginBottom=0;whiteSpace=wrap;html=1;fillColor=#d5e8d4;strokeColor=#82b366;" parent="1" vertex="1">
          <mxGeometry x="-1370" y="212" width="420" height="228" as="geometry" />
        </mxCell>
        <mxCell id="8pnDIeixsctBV1Rn3b5U-48" value="- app : Shapedrawer&lt;br&gt;- todraw : ShapeToDraw&lt;br&gt;- randomDrawing : bool&lt;br&gt;- shapedrawn : cv::Point[0..n]&lt;br&gt;- cursorPosition : cv::Poinnt" style="text;strokeColor=none;fillColor=none;align=left;verticalAlign=top;spacingLeft=4;spacingRight=4;overflow=hidden;rotatable=0;points=[[0,0.5],[1,0.5]];portConstraint=eastwest;whiteSpace=wrap;html=1;" parent="8pnDIeixsctBV1Rn3b5U-47" vertex="1">
          <mxGeometry y="26" width="420" height="84" as="geometry" />
        </mxCell>
        <mxCell id="8pnDIeixsctBV1Rn3b5U-49" value="" style="line;strokeWidth=1;fillColor=none;align=left;verticalAlign=middle;spacingTop=-1;spacingLeft=3;spacingRight=3;rotatable=0;labelPosition=right;points=[];portConstraint=eastwest;strokeColor=inherit;" parent="8pnDIeixsctBV1Rn3b5U-47" vertex="1">
          <mxGeometry y="110" width="420" height="8" as="geometry" />
        </mxCell>
        <mxCell id="8pnDIeixsctBV1Rn3b5U-50" value="- InputManager()&lt;br&gt;&lt;br&gt;+ init(app : ShapeDrawer)&lt;br&gt;+ mouse_callback(event : int,&amp;nbsp; x : int, y : int, flags : int, userdata : void*)&lt;br&gt;+key_callback()&lt;br&gt;+ draw()" style="text;strokeColor=none;fillColor=none;align=left;verticalAlign=top;spacingLeft=4;spacingRight=4;overflow=hidden;rotatable=0;points=[[0,0.5],[1,0.5]];portConstraint=eastwest;whiteSpace=wrap;html=1;" parent="8pnDIeixsctBV1Rn3b5U-47" vertex="1">
          <mxGeometry y="118" width="420" height="110" as="geometry" />
        </mxCell>
        <mxCell id="8pnDIeixsctBV1Rn3b5U-52" value="" style="endArrow=open;endSize=12;dashed=1;html=1;rounded=0;exitX=1;exitY=0.5;exitDx=0;exitDy=0;" parent="1" source="8pnDIeixsctBV1Rn3b5U-50" target="8pnDIeixsctBV1Rn3b5U-31" edge="1">
          <mxGeometry width="160" relative="1" as="geometry">
            <mxPoint x="-870" y="400" as="sourcePoint" />
            <mxPoint x="-630" y="454" as="targetPoint" />
          </mxGeometry>
        </mxCell>
        <mxCell id="8pnDIeixsctBV1Rn3b5U-53" value="Window" style="swimlane;fontStyle=1;align=center;verticalAlign=top;childLayout=stackLayout;horizontal=1;startSize=26;horizontalStack=0;resizeParent=1;resizeParentMax=0;resizeLast=0;collapsible=1;marginBottom=0;whiteSpace=wrap;html=1;fillColor=#d5e8d4;strokeColor=#82b366;" parent="1" vertex="1">
          <mxGeometry x="-1210" y="465" width="330" height="190" as="geometry" />
        </mxCell>
        <mxCell id="8pnDIeixsctBV1Rn3b5U-54" value="- image : cv::Mat&lt;br&gt;- name : string&lt;br&gt;- size : cv::Size" style="text;strokeColor=none;fillColor=none;align=left;verticalAlign=top;spacingLeft=4;spacingRight=4;overflow=hidden;rotatable=0;points=[[0,0.5],[1,0.5]];portConstraint=eastwest;whiteSpace=wrap;html=1;" parent="8pnDIeixsctBV1Rn3b5U-53" vertex="1">
          <mxGeometry y="26" width="330" height="54" as="geometry" />
        </mxCell>
        <mxCell id="8pnDIeixsctBV1Rn3b5U-55" value="" style="line;strokeWidth=1;fillColor=none;align=left;verticalAlign=middle;spacingTop=-1;spacingLeft=3;spacingRight=3;rotatable=0;labelPosition=right;points=[];portConstraint=eastwest;strokeColor=inherit;" parent="8pnDIeixsctBV1Rn3b5U-53" vertex="1">
          <mxGeometry y="80" width="330" height="8" as="geometry" />
        </mxCell>
        <mxCell id="8pnDIeixsctBV1Rn3b5U-56" value="+ WindowManager(name : string, size : cv::Size)&lt;br&gt;&lt;br&gt;+ get_image() : cv::Mat&lt;br&gt;+ get_name() : string&lt;br&gt;+ get_size() : cv::Size&lt;br&gt;+ new_image() : cv::Mat" style="text;strokeColor=none;fillColor=none;align=left;verticalAlign=top;spacingLeft=4;spacingRight=4;overflow=hidden;rotatable=0;points=[[0,0.5],[1,0.5]];portConstraint=eastwest;whiteSpace=wrap;html=1;" parent="8pnDIeixsctBV1Rn3b5U-53" vertex="1">
          <mxGeometry y="88" width="330" height="102" as="geometry" />
        </mxCell>
        <mxCell id="8pnDIeixsctBV1Rn3b5U-58" value="ShapeDrawer" style="swimlane;fontStyle=1;align=center;verticalAlign=top;childLayout=stackLayout;horizontal=1;startSize=26;horizontalStack=0;resizeParent=1;resizeParentMax=0;resizeLast=0;collapsible=1;marginBottom=0;whiteSpace=wrap;html=1;fillColor=#d5e8d4;strokeColor=#82b366;" parent="1" vertex="1">
          <mxGeometry x="-440" y="440" width="310" height="240" as="geometry" />
        </mxCell>
        <mxCell id="8pnDIeixsctBV1Rn3b5U-59" value="- shouldClose : bool" style="text;strokeColor=none;fillColor=none;align=left;verticalAlign=top;spacingLeft=4;spacingRight=4;overflow=hidden;rotatable=0;points=[[0,0.5],[1,0.5]];portConstraint=eastwest;whiteSpace=wrap;html=1;" parent="8pnDIeixsctBV1Rn3b5U-58" vertex="1">
          <mxGeometry y="26" width="310" height="44" as="geometry" />
        </mxCell>
        <mxCell id="8pnDIeixsctBV1Rn3b5U-60" value="" style="line;strokeWidth=1;fillColor=none;align=left;verticalAlign=middle;spacingTop=-1;spacingLeft=3;spacingRight=3;rotatable=0;labelPosition=right;points=[];portConstraint=eastwest;strokeColor=inherit;" parent="8pnDIeixsctBV1Rn3b5U-58" vertex="1">
          <mxGeometry y="70" width="310" height="8" as="geometry" />
        </mxCell>
        <mxCell id="8pnDIeixsctBV1Rn3b5U-61" value="+ ShapeDrawer(size : cv::Size)&lt;br&gt;&lt;br&gt;+ run()&lt;br&gt;+ close()&lt;br&gt;&lt;br&gt;+ get_window() : Window&lt;br&gt;+ get_dataManger() : DataManager&lt;br&gt;+ get_shapeManager() : ShapeManager&lt;br&gt;&lt;br&gt;- main_menu()" style="text;strokeColor=none;fillColor=none;align=left;verticalAlign=top;spacingLeft=4;spacingRight=4;overflow=hidden;rotatable=0;points=[[0,0.5],[1,0.5]];portConstraint=eastwest;whiteSpace=wrap;html=1;" parent="8pnDIeixsctBV1Rn3b5U-58" vertex="1">
          <mxGeometry y="78" width="310" height="162" as="geometry" />
        </mxCell>
        <mxCell id="8pnDIeixsctBV1Rn3b5U-65" value="" style="endArrow=open;endSize=12;dashed=1;html=1;rounded=0;entryX=1;entryY=0;entryDx=0;entryDy=0;" parent="1" source="8pnDIeixsctBV1Rn3b5U-31" target="8pnDIeixsctBV1Rn3b5U-53" edge="1">
          <mxGeometry width="160" relative="1" as="geometry">
            <mxPoint x="-900" y="370" as="sourcePoint" />
            <mxPoint x="-690" y="308" as="targetPoint" />
            <Array as="points">
              <mxPoint x="-390" y="330" />
            </Array>
          </mxGeometry>
        </mxCell>
        <mxCell id="HysX2FoiBgaNgV4UXvgv-1" value="window" style="endArrow=block;endFill=1;html=1;edgeStyle=orthogonalEdgeStyle;align=left;verticalAlign=top;rounded=0;" parent="1" source="8pnDIeixsctBV1Rn3b5U-59" target="8pnDIeixsctBV1Rn3b5U-53" edge="1">
          <mxGeometry x="1" relative="1" as="geometry">
            <mxPoint x="-700" y="390" as="sourcePoint" />
            <mxPoint x="-640" y="450" as="targetPoint" />
            <mxPoint as="offset" />
          </mxGeometry>
        </mxCell>
        <mxCell id="HysX2FoiBgaNgV4UXvgv-2" value="1" style="edgeLabel;resizable=0;html=1;align=left;verticalAlign=bottom;" parent="HysX2FoiBgaNgV4UXvgv-1" connectable="0" vertex="1">
          <mxGeometry x="-1" relative="1" as="geometry">
            <mxPoint x="-300" y="21" as="offset" />
          </mxGeometry>
        </mxCell>
        <mxCell id="HysX2FoiBgaNgV4UXvgv-5" value="data" style="endArrow=block;endFill=1;html=1;edgeStyle=orthogonalEdgeStyle;align=left;verticalAlign=top;rounded=0;exitX=0;exitY=0.5;exitDx=0;exitDy=0;" parent="1" source="8pnDIeixsctBV1Rn3b5U-59" target="8pnDIeixsctBV1Rn3b5U-42" edge="1">
          <mxGeometry x="1" relative="1" as="geometry">
            <mxPoint x="-900" y="420" as="sourcePoint" />
            <mxPoint x="-740" y="420" as="targetPoint" />
            <Array as="points">
              <mxPoint x="-460" y="493" />
              <mxPoint x="-460" y="330" />
              <mxPoint x="-860" y="330" />
              <mxPoint x="-860" y="100" />
            </Array>
            <mxPoint x="-1" as="offset" />
          </mxGeometry>
        </mxCell>
        <mxCell id="HysX2FoiBgaNgV4UXvgv-6" value="1" style="edgeLabel;resizable=0;html=1;align=left;verticalAlign=bottom;" parent="HysX2FoiBgaNgV4UXvgv-5" connectable="0" vertex="1">
          <mxGeometry x="-1" relative="1" as="geometry">
            <mxPoint x="-550" y="-401" as="offset" />
          </mxGeometry>
        </mxCell>
        <mxCell id="HysX2FoiBgaNgV4UXvgv-7" value="shapes" style="endArrow=block;endFill=1;html=1;edgeStyle=orthogonalEdgeStyle;align=left;verticalAlign=top;rounded=0;exitX=1;exitY=0.5;exitDx=0;exitDy=0;" parent="1" source="8pnDIeixsctBV1Rn3b5U-59" target="8pnDIeixsctBV1Rn3b5U-31" edge="1">
          <mxGeometry x="1" relative="1" as="geometry">
            <mxPoint x="-580" y="440" as="sourcePoint" />
            <mxPoint x="-420" y="440" as="targetPoint" />
            <mxPoint as="offset" />
          </mxGeometry>
        </mxCell>
        <mxCell id="HysX2FoiBgaNgV4UXvgv-8" value="1" style="edgeLabel;resizable=0;html=1;align=left;verticalAlign=bottom;" parent="HysX2FoiBgaNgV4UXvgv-7" connectable="0" vertex="1">
          <mxGeometry x="-1" relative="1" as="geometry">
            <mxPoint x="-20" y="-313" as="offset" />
          </mxGeometry>
        </mxCell>
        <mxCell id="CelTh0_WtBwdc45ko1eh-1" value="" style="shape=table;startSize=0;container=1;collapsible=0;childLayout=tableLayout;fontSize=16;" parent="1" vertex="1">
          <mxGeometry x="-1540" y="20" width="230" height="160" as="geometry" />
        </mxCell>
        <mxCell id="CelTh0_WtBwdc45ko1eh-2" value="" style="shape=tableRow;horizontal=0;startSize=0;swimlaneHead=0;swimlaneBody=0;strokeColor=inherit;top=0;left=0;bottom=0;right=0;collapsible=0;dropTarget=0;fillColor=none;points=[[0,0.5],[1,0.5]];portConstraint=eastwest;fontSize=16;" parent="CelTh0_WtBwdc45ko1eh-1" vertex="1">
          <mxGeometry width="230" height="40" as="geometry" />
        </mxCell>
        <mxCell id="CelTh0_WtBwdc45ko1eh-3" value="" style="shape=partialRectangle;html=1;whiteSpace=wrap;connectable=0;strokeColor=#d79b00;overflow=hidden;fillColor=#ffe6cc;top=0;left=0;bottom=0;right=0;pointerEvents=1;fontSize=16;" parent="CelTh0_WtBwdc45ko1eh-2" vertex="1">
          <mxGeometry width="60" height="40" as="geometry">
            <mxRectangle width="60" height="40" as="alternateBounds" />
          </mxGeometry>
        </mxCell>
        <mxCell id="CelTh0_WtBwdc45ko1eh-4" value="Antoine" style="shape=partialRectangle;html=1;whiteSpace=wrap;connectable=0;strokeColor=inherit;overflow=hidden;fillColor=none;top=0;left=0;bottom=0;right=0;pointerEvents=1;fontSize=16;" parent="CelTh0_WtBwdc45ko1eh-2" vertex="1">
          <mxGeometry x="60" width="170" height="40" as="geometry">
            <mxRectangle width="170" height="40" as="alternateBounds" />
          </mxGeometry>
        </mxCell>
        <mxCell id="CelTh0_WtBwdc45ko1eh-6" value="" style="shape=tableRow;horizontal=0;startSize=0;swimlaneHead=0;swimlaneBody=0;strokeColor=inherit;top=0;left=0;bottom=0;right=0;collapsible=0;dropTarget=0;fillColor=none;points=[[0,0.5],[1,0.5]];portConstraint=eastwest;fontSize=16;" parent="CelTh0_WtBwdc45ko1eh-1" vertex="1">
          <mxGeometry y="40" width="230" height="40" as="geometry" />
        </mxCell>
        <mxCell id="CelTh0_WtBwdc45ko1eh-7" value="" style="shape=partialRectangle;html=1;whiteSpace=wrap;connectable=0;strokeColor=#82b366;overflow=hidden;fillColor=#d5e8d4;top=0;left=0;bottom=0;right=0;pointerEvents=1;fontSize=16;" parent="CelTh0_WtBwdc45ko1eh-6" vertex="1">
          <mxGeometry width="60" height="40" as="geometry">
            <mxRectangle width="60" height="40" as="alternateBounds" />
          </mxGeometry>
        </mxCell>
        <mxCell id="CelTh0_WtBwdc45ko1eh-8" value="Raphaël&lt;br&gt;" style="shape=partialRectangle;html=1;whiteSpace=wrap;connectable=0;strokeColor=inherit;overflow=hidden;fillColor=none;top=0;left=0;bottom=0;right=0;pointerEvents=1;fontSize=16;" parent="CelTh0_WtBwdc45ko1eh-6" vertex="1">
          <mxGeometry x="60" width="170" height="40" as="geometry">
            <mxRectangle width="170" height="40" as="alternateBounds" />
          </mxGeometry>
        </mxCell>
        <mxCell id="CelTh0_WtBwdc45ko1eh-10" value="" style="shape=tableRow;horizontal=0;startSize=0;swimlaneHead=0;swimlaneBody=0;strokeColor=inherit;top=0;left=0;bottom=0;right=0;collapsible=0;dropTarget=0;fillColor=none;points=[[0,0.5],[1,0.5]];portConstraint=eastwest;fontSize=16;" parent="CelTh0_WtBwdc45ko1eh-1" vertex="1">
          <mxGeometry y="80" width="230" height="40" as="geometry" />
        </mxCell>
        <mxCell id="CelTh0_WtBwdc45ko1eh-11" value="" style="shape=partialRectangle;html=1;whiteSpace=wrap;connectable=0;strokeColor=#b85450;overflow=hidden;fillColor=#f8cecc;top=0;left=0;bottom=0;right=0;pointerEvents=1;fontSize=16;" parent="CelTh0_WtBwdc45ko1eh-10" vertex="1">
          <mxGeometry width="60" height="40" as="geometry">
            <mxRectangle width="60" height="40" as="alternateBounds" />
          </mxGeometry>
        </mxCell>
        <mxCell id="CelTh0_WtBwdc45ko1eh-12" value="Adham" style="shape=partialRectangle;html=1;whiteSpace=wrap;connectable=0;strokeColor=inherit;overflow=hidden;fillColor=none;top=0;left=0;bottom=0;right=0;pointerEvents=1;fontSize=16;" parent="CelTh0_WtBwdc45ko1eh-10" vertex="1">
          <mxGeometry x="60" width="170" height="40" as="geometry">
            <mxRectangle width="170" height="40" as="alternateBounds" />
          </mxGeometry>
        </mxCell>
        <mxCell id="CelTh0_WtBwdc45ko1eh-14" style="shape=tableRow;horizontal=0;startSize=0;swimlaneHead=0;swimlaneBody=0;strokeColor=inherit;top=0;left=0;bottom=0;right=0;collapsible=0;dropTarget=0;fillColor=none;points=[[0,0.5],[1,0.5]];portConstraint=eastwest;fontSize=16;" parent="CelTh0_WtBwdc45ko1eh-1" vertex="1">
          <mxGeometry y="120" width="230" height="40" as="geometry" />
        </mxCell>
        <mxCell id="CelTh0_WtBwdc45ko1eh-15" style="shape=partialRectangle;html=1;whiteSpace=wrap;connectable=0;strokeColor=#6c8ebf;overflow=hidden;fillColor=#dae8fc;top=0;left=0;bottom=0;right=0;pointerEvents=1;fontSize=16;" parent="CelTh0_WtBwdc45ko1eh-14" vertex="1">
          <mxGeometry width="60" height="40" as="geometry">
            <mxRectangle width="60" height="40" as="alternateBounds" />
          </mxGeometry>
        </mxCell>
        <mxCell id="CelTh0_WtBwdc45ko1eh-16" value="Abdelhak" style="shape=partialRectangle;html=1;whiteSpace=wrap;connectable=0;strokeColor=inherit;overflow=hidden;fillColor=none;top=0;left=0;bottom=0;right=0;pointerEvents=1;fontSize=16;" parent="CelTh0_WtBwdc45ko1eh-14" vertex="1">
          <mxGeometry x="60" width="170" height="40" as="geometry">
            <mxRectangle width="170" height="40" as="alternateBounds" />
          </mxGeometry>
        </mxCell>
        <mxCell id="rJ_ZzCB2dPNrg5YnqWUb-1" value="" style="endArrow=open;endSize=12;dashed=1;html=1;rounded=0;exitX=0;exitY=0.5;exitDx=0;exitDy=0;" edge="1" parent="1" source="8pnDIeixsctBV1Rn3b5U-61" target="8pnDIeixsctBV1Rn3b5U-50">
          <mxGeometry width="160" relative="1" as="geometry">
            <mxPoint x="-950" y="340" as="sourcePoint" />
            <mxPoint x="-710" y="280" as="targetPoint" />
          </mxGeometry>
        </mxCell>
        <mxCell id="rJ_ZzCB2dPNrg5YnqWUb-2" value="shapes" style="endArrow=block;endFill=1;html=1;edgeStyle=orthogonalEdgeStyle;align=left;verticalAlign=top;rounded=0;entryX=0;entryY=0.5;entryDx=0;entryDy=0;" edge="1" parent="1" source="8pnDIeixsctBV1Rn3b5U-45" target="8pnDIeixsctBV1Rn3b5U-31">
          <mxGeometry x="0.7682" y="-10" relative="1" as="geometry">
            <mxPoint x="-940" y="240" as="sourcePoint" />
            <mxPoint x="-780" y="240" as="targetPoint" />
            <Array as="points">
              <mxPoint x="-760" y="135" />
              <mxPoint x="-760" y="200" />
            </Array>
            <mxPoint x="-10" y="-10" as="offset" />
          </mxGeometry>
        </mxCell>
        <mxCell id="rJ_ZzCB2dPNrg5YnqWUb-3" value="1" style="edgeLabel;resizable=0;html=1;align=left;verticalAlign=bottom;" connectable="0" vertex="1" parent="rJ_ZzCB2dPNrg5YnqWUb-2">
          <mxGeometry x="-1" relative="1" as="geometry">
            <mxPoint x="260" y="55" as="offset" />
          </mxGeometry>
        </mxCell>
        <mxCell id="rJ_ZzCB2dPNrg5YnqWUb-4" value="app" style="endArrow=block;endFill=1;html=1;edgeStyle=orthogonalEdgeStyle;align=left;verticalAlign=top;rounded=0;exitX=1;exitY=0.5;exitDx=0;exitDy=0;" edge="1" parent="1" source="8pnDIeixsctBV1Rn3b5U-48" target="8pnDIeixsctBV1Rn3b5U-61">
          <mxGeometry x="0.9048" y="-11" relative="1" as="geometry">
            <mxPoint x="-680" y="450" as="sourcePoint" />
            <mxPoint x="-520" y="450" as="targetPoint" />
            <Array as="points">
              <mxPoint x="-910" y="269" />
              <mxPoint x="-910" y="320" />
              <mxPoint x="-700" y="320" />
              <mxPoint x="-700" y="589" />
            </Array>
            <mxPoint as="offset" />
          </mxGeometry>
        </mxCell>
        <mxCell id="rJ_ZzCB2dPNrg5YnqWUb-5" value="1" style="edgeLabel;resizable=0;html=1;align=left;verticalAlign=bottom;" connectable="0" vertex="1" parent="rJ_ZzCB2dPNrg5YnqWUb-4">
          <mxGeometry x="-1" relative="1" as="geometry">
            <mxPoint x="500" y="315" as="offset" />
          </mxGeometry>
        </mxCell>
      </root>
    </mxGraphModel>
  </diagram>
</mxfile>
